<svg xmlns="http://www.w3.org/2000/svg" width="57" height="20" fill="none">
<path fill="#090202ff" d="M8 17.4c2.6 0 4.7-2 4.7-5.1V.3h2.9v19.4h-2.9v-1.8a7 7 0 01-5 2.1c-4.2 0-7.4-3-7.4-7.6V.4h3v11.9c0 3 2 5.1 4.6 5.1zM17.7.3h2.8v7a7 7 0 015-2c4 0 7.3 3.3 7.3 7.4 0 4-3.2 7.3-7.4 7.3a7 7 0 01-5-2.1v1.8h-2.7V.3zm7.6 17.2c2.6 0 4.8-2.1 4.8-4.9 0-2.7-2.2-4.8-4.8-4.8a4.8 4.8 0 00-4.9 4.8c0 2.8 2.2 5 4.9 5zM41.1 5.3c4 0 7 3.1 7 7.3v1H36.7c.4 2.2 2.3 4 4.7 4 1.6 0 3-.7 4-2.1l2 1.5a7.3 7.3 0 01-6 3 7.3 7.3 0 01-7.5-7.4c0-4 3.1-7.3 7.2-7.3zm-4.3 6h8.5a4.4 4.4 0 00-4.2-3.6c-2.1 0-3.8 1.5-4.3 3.6zM55.6 8c-1.8 0-3.2 1.5-3.2 3.7v8h-2.7V5.6h2.7v1.7a3.7 3.7 0 013.4-1.8h1V8h-1.2z">
</path>
</svg>